<svg width="64" height="64" viewBox="0 0 20 20" xmlns="http://www.w3.org/2000/svg"><g transform="translate(1 1)" fill-rule="evenodd"><circle cx="13" cy="6" r="3"></circle><circle cx="5" cy="3" r="3"></circle><path d="M8 12c0-1.105.887-2 2-2h6c1.105 0 2 .885 2 2v3.73c0 3.027-10 3.027-10 0V12z"></path><path d="M0 9h10V7H0v2zm0 6h7V8H0v7z" fill="#FFF"></path><path d="M10 9h-.003A3.001 3.001 0 0 0 7 12.006v2.807c-2.946.534-7-.063-7-1.984V9.003C0 7.897.887 7 2 7h6c1.102 0 1.996.885 2 2z"></path></g></svg>
