<svg width="64" height="64" viewBox="0 0 20 20" xmlns="http://www.w3.org/2000/svg"><path d="M8.74 13.55c.532.32 1.196.32 1.728 0l4.172-2.51v3.256c0 .591-.309 1.138-.814 1.443l-3.358 2.021c-.532.32-1.196.32-1.728 0l-3.358-2.02a1.686 1.686 0 0 1-.816-1.444v-3.257L8.74 13.55zm8.444-7.549c.505.305.816.852.816 1.445v8.322c0 .458-.39.827-.84.827a.841.841 0 0 1-.84-.827V7.502l-5.852 3.523c-.533.32-1.196.32-1.728 0L2.408 7.214a.842.842 0 0 1 0-1.444l5.469-3.29a3.35 3.35 0 0 1 3.455 0L17.184 6z" fill-rule="evenodd"></path></svg>
