<svg width="64" height="64" viewBox="0 0 20 20" xmlns="http://www.w3.org/2000/svg"><path d="M11.84 7.932a12.183 12.183 0 0 1 1.984 3.309c.64 1.604.992 3.803 1.084 6.624a1.5 1.5 0 1 1-2.998.1c-.082-2.505-.383-4.385-.873-5.613-.485-1.216-1.232-2.316-2.252-3.307a1.52 1.52 0 0 1-.092-.097l-.052.003c-1.722.107-3.417 1.54-5.057 4.366a.5.5 0 0 1-.931-.207c-.211-2.41.4-4.19 1.86-5.274a5.47 5.47 0 0 1 2.226-1.008C5.31 6.45 3.398 6.823.996 7.988a.5.5 0 0 1-.656-.692c1.172-2.116 2.675-3.25 4.491-3.333 1.703-.078 3.164.527 4.348 1.795.007-1.433.52-2.694 1.534-3.758C11.967.684 13.809.294 16.174.797a.5.5 0 0 1 .093.949c-2.569 1.097-4.131 2.357-4.729 3.76 1.017-.812 2.213-1.203 3.57-1.164 1.816.051 3.339 1.158 4.547 3.253a.5.5 0 0 1-.643.704c-2.966-1.375-5.175-1.576-6.647-.676-.191.117-.365.22-.525.309z" fill-rule="nonzero"></path></svg>
