<svg width="64" height="64" viewBox="0 0 20 20" xmlns="http://www.w3.org/2000/svg"><path d="M16.222 3.778h.005c.98 0 1.773.795 1.773 1.772v10.678c0 .978-.793 1.772-1.773 1.772H3.773C2.793 18 2 17.205 2 16.228V5.55c0-.978.793-1.772 1.773-1.772h.005v.889c0 .988.796 1.777 1.778 1.777.988 0 1.777-.795 1.777-1.777v-.89h5.334v.89c0 .988.796 1.777 1.777 1.777.99 0 1.778-.795 1.778-1.777v-.89z M5.556 10.89h1.777V9.11H5.556zM5.556 14.445h1.777v-1.778H5.556zM9.111 10.89h1.778V9.11H9.11zM9.111 14.445h1.778v-1.778H9.11zM12.667 10.89h1.777V9.11h-1.777zM12.667 14.445h1.777v-1.778h-1.777z M13.556 3.778v-.89a.89.89 0 0 1 1.777 0v1.779a.89.89 0 0 1-1.777 0v-.89zM6.444 3.778v.889a.89.89 0 0 1-1.777 0V2.889a.89.89 0 0 1 1.777 0v.889z"></path></svg>
