<svg width="64" height="64" viewBox="0 0 20 20" xmlns="http://www.w3.org/2000/svg"><g fill-rule="evenodd"><path d="M5.938 4.458a4.844 4.844 0 0 0-.777-.063C2.356 4.396 0 6.577 0 9.43c0 2.882 2.385 5.45 5.1 5.45h.881v-1.974H5.1c-1.657 0-3.115-1.648-3.115-3.476 0-1.761 1.469-3.058 3.104-3.058.401 0 .698.05.982.148l.17.063c.605.246.875-.244.875-.244l.15-.264c.73-1.335 2.201-2.077 3.716-2.1 2.082.034 3.797 1.534 4.069 3.61l.046.337s.071.52.665.52l.277.005c1.136 0 1.976.95 1.976 2.138 0 1.196-.987 2.32-2.07 2.32h-2.964v1.975h2.964c2.16 0 4.055-2.026 4.055-4.295 0-1.98-1.312-3.629-3.138-4.036-.707-2.682-3.053-4.51-5.886-4.548-1.975.02-3.901.892-5.038 2.458z"></path><path d="M9.145 14.868l-.794.018-.26.004-.104-.002c-.032-.001-.032-.001-.095-.007-.045-.005-.045-.005-.152-.029-.08-.022-.08-.022-.245-.102-.273-.16-.273-.16-.495-.864 0-.514.08-.614 3.419-4.602a1 1 0 0 1 1.533 1.284c-.773.923-1.404 1.684-1.893 2.282.25-.003.462-.004.638-.002.175.001.314.005.422.013.082.006.152.014.223.028.083.016.083.016.242.075.282.102.282.102.602.922 0 .526-.217.796-3.42 4.614a1 1 0 0 1-1.532-1.286c.802-.956 1.452-1.739 1.948-2.347h-.037z" fill-rule="nonzero"></path></g></svg>
