<svg width="64" height="64" viewBox="0 0 20 20" xmlns="http://www.w3.org/2000/svg"><path d="M2.63463122 12.00024961c.42347959.77002165 1.05658158 1.45204083 1.86966239 2.00005629H1v-2.00005629h1.63463122zm10.62933768-1.00002812h-2.48582515c.99909375-1.05511782 1.08143305-2.62633496.19753961-3.76949635-.88389339-1.14316139-2.493473-1.5471623-3.86153148-.96923583-1.36805849.57792647-2.12228669 1.98050099-1.80946373 3.36490697.31282295 1.38440599 1.60756411 2.37388541 3.10620469 2.37385333v2.00005629c-2.3407169-.00062983-4.40309686-1.4533004-5.07154686-3.57222583-.66845001-2.11892544.21575193-4.40097153 2.17431881-5.61172235 1.95856689-1.21075083 4.52644131-1.06271625 6.31459561.3640281 1.7881543 1.42674436 2.3719952 3.79342119 1.4357085 5.81983567zm1.8093166 4.70813241c.4145048.3888615 1.0835543.3888615 1.498059 0l2.1131632-1.99705617C18.8930714 13.51429219 19 13.25828499 19 12.9992777c0-.25400714-.1048112-.51001434-.3154923-.71001996l-2.1131632-1.99605614c-.4133852-.39075245-1.0838521-.39097631-1.4975297-.00050001-.4136775.3904763-.4139145 1.02378733-.0005293 1.41453978l1.3699565 1.29303636-1.3699565 1.29403637c-.413297.3905109-.413297 1.023529 0 1.4140398z"></path><path d="M8.41176471 12h8.47058819v2H8.41176471z"></path></svg>
